<?xml version="1.0" standalone="no"?>
<!DOCTYPE svg PUBLIC "-//W3C//DTD SVG 20010904//EN"
 "http://www.w3.org/TR/2001/REC-SVG-20010904/DTD/svg10.dtd">
<svg version="1.0" xmlns="http://www.w3.org/2000/svg"
 width="512.000000pt" height="512.000000pt" viewBox="0 0 512.000000 512.000000"
 preserveAspectRatio="xMidYMid meet">

<g transform="translate(0.000000,512.000000) scale(0.100000,-0.100000)"
fill="#000000" stroke="none">
<path d="M2420 5114 c-322 -40 -591 -171 -815 -398 -199 -201 -313 -415 -372
-696 -24 -118 -24 -382 0 -500 59 -281 174 -496 372 -696 201 -203 421 -322
705 -381 117 -24 380 -24 502 0 270 54 494 174 694 372 202 199 322 421 381
705 24 118 24 382 0 500 -39 185 -110 356 -212 510 -63 95 -258 291 -351 352
-161 107 -335 180 -506 213 -81 16 -328 28 -398 19z m380 -323 c197 -50 365
-144 501 -280 135 -135 226 -297 282 -501 16 -62 20 -104 20 -240 0 -180 -10
-235 -72 -395 -33 -86 -124 -232 -189 -305 l-41 -45 6 100 c9 161 -29 310
-114 444 -76 121 -229 249 -359 300 -69 27 -191 51 -258 51 -131 0 -242 45
-331 135 -248 247 -133 661 210 752 67 17 248 9 345 -16z m-987 -379 c-21
-370 235 -701 599 -776 42 -9 102 -16 132 -16 132 0 242 -45 331 -134 143
-143 173 -347 79 -527 -62 -117 -176 -201 -309 -229 -176 -37 -455 32 -653
160 -530 342 -639 1068 -235 1555 30 36 56 65 58 65 2 0 1 -44 -2 -98z"/>
<path d="M2488 4499 c-43 -22 -78 -81 -78 -129 0 -50 35 -107 80 -130 21 -11
53 -20 70 -20 76 0 150 74 150 150 0 50 -35 107 -80 130 -49 25 -94 25 -142
-1z"/>
<path d="M2488 3299 c-43 -22 -78 -81 -78 -129 0 -50 35 -107 80 -130 21 -11
53 -20 70 -20 76 0 150 74 150 150 0 50 -35 107 -80 130 -49 25 -94 25 -142
-1z"/>
<path d="M78 3579 c-23 -12 -46 -35 -58 -59 -20 -40 -21 -51 -18 -938 l4 -897
22 -75 c50 -163 22 -133 797 -873 391 -373 730 -691 754 -708 l45 -29 935 0
c863 1 938 2 967 18 18 9 359 329 758 710 793 757 757 717 808 884 l23 73 3
897 c3 887 2 898 -18 938 -39 77 -122 96 -278 64 -278 -57 -491 -250 -583
-529 -22 -67 -23 -84 -26 -450 -3 -325 -6 -385 -20 -417 -9 -21 -19 -38 -22
-38 -3 0 -19 20 -34 45 -92 145 -277 226 -448 197 -146 -25 -138 -19 -656
-536 l-473 -471 -472 471 c-519 517 -511 511 -657 536 -171 29 -356 -52 -448
-197 -15 -25 -31 -45 -34 -45 -3 0 -13 17 -22 38 -14 31 -17 93 -20 417 -3
366 -4 383 -26 450 -93 281 -303 472 -583 529 -103 21 -174 20 -220 -5z m308
-345 c53 -31 145 -128 173 -182 47 -91 51 -135 51 -499 0 -213 4 -362 11 -395
27 -127 30 -132 503 -606 242 -244 453 -450 468 -458 15 -8 45 -14 68 -14 98
0 163 80 145 178 -5 32 -48 78 -285 317 -153 154 -285 294 -294 312 -35 69 -5
158 64 193 49 25 90 25 138 1 58 -30 892 -875 925 -937 53 -100 57 -139 57
-506 l0 -338 -345 0 -345 0 -682 650 c-631 601 -685 654 -708 707 l-25 58 -3
778 -3 779 23 -8 c13 -3 41 -17 64 -30z m4432 -741 l-3 -778 -25 -58 c-23 -53
-76 -106 -707 -707 l-682 -650 -346 0 -345 0 0 338 c0 367 4 406 57 506 33 62
867 907 925 937 48 24 89 24 138 -1 69 -35 99 -124 64 -193 -9 -18 -141 -158
-294 -312 -237 -239 -280 -285 -285 -317 -18 -98 47 -178 145 -178 23 0 53 6
68 14 15 8 226 214 468 458 473 474 476 479 503 606 7 33 11 182 11 395 0 373
4 412 57 509 32 59 133 156 194 186 24 12 48 22 52 22 4 0 6 -350 5 -777z"/>
</g>
</svg>
