<?xml version="1.0" standalone="no"?>
<!DOCTYPE svg PUBLIC "-//W3C//DTD SVG 20010904//EN"
 "http://www.w3.org/TR/2001/REC-SVG-20010904/DTD/svg10.dtd">
<svg version="1.0" xmlns="http://www.w3.org/2000/svg"
 width="512.000000pt" height="512.000000pt" viewBox="0 0 512.000000 512.000000"
 preserveAspectRatio="xMidYMid meet">

<g transform="translate(0.000000,512.000000) scale(0.100000,-0.100000)"
fill="#000000" stroke="none">
<path d="M2405 5106 c-363 -72 -638 -356 -695 -716 -35 -223 26 -465 163 -645
52 -69 60 -59 -78 -100 -230 -68 -458 -231 -592 -423 -26 -37 -133 -215 -238
-395 l-190 -327 -177 0 c-97 0 -201 -5 -230 -11 -248 -52 -412 -299 -357 -538
38 -165 181 -305 347 -340 34 -7 196 -11 443 -11 365 0 392 1 428 19 31 16 56
50 146 193 60 95 115 182 122 193 11 16 13 -40 13 -346 l0 -366 -217 43 c-141
28 -245 44 -293 44 -258 0 -500 -150 -614 -380 -98 -200 -100 -410 -6 -605 73
-150 175 -252 325 -325 153 -74 46 -70 1855 -70 1806 0 1699 -4 1855 69 284
133 441 448 380 759 -25 124 -92 250 -184 342 -134 135 -277 199 -461 207 -94
4 -127 0 -322 -40 l-218 -44 0 365 c0 201 2 363 4 361 2 -2 56 -88 121 -192
99 -158 123 -191 155 -207 37 -19 61 -20 429 -20 247 0 409 4 443 11 165 35
310 176 347 340 56 240 -108 486 -357 538 -29 6 -133 11 -230 11 l-177 0 -190
327 c-104 180 -211 357 -237 393 -144 207 -403 385 -638 440 -83 19 -83 19
-33 85 276 365 213 884 -145 1181 -76 63 -236 144 -332 169 -90 22 -277 28
-365 11z m261 -297 c98 -17 210 -78 288 -155 219 -220 219 -569 -1 -789 -219
-219 -568 -218 -788 3 -238 238 -212 631 56 834 131 100 284 136 445 107z
m469 -1424 c203 -36 412 -164 531 -327 19 -26 135 -219 258 -430 197 -338 228
-386 262 -405 37 -22 49 -23 269 -23 219 0 233 -1 275 -22 63 -32 93 -80 87
-139 -5 -56 -34 -101 -81 -123 -29 -14 -80 -16 -363 -16 l-329 0 -239 381
c-209 333 -243 382 -276 400 -21 10 -52 19 -69 19 -50 0 -107 -35 -130 -80
-19 -38 -20 -57 -20 -713 l0 -674 -375 -75 -375 -75 -375 75 -375 75 0 674 c0
656 -1 675 -20 713 -23 45 -80 80 -130 80 -17 0 -48 -9 -70 -20 -34 -17 -66
-63 -276 -400 l-238 -380 -329 0 c-283 0 -334 2 -363 16 -47 22 -76 67 -81
123 -6 59 24 107 87 139 42 21 56 22 275 22 220 0 232 1 269 23 34 19 65 67
262 405 245 421 266 452 351 533 126 119 269 193 438 224 110 21 1033 20 1150
0z m-1707 -2382 l383 -76 -53 -29 c-185 -101 -286 -330 -233 -531 8 -32 15
-60 15 -63 0 -3 -143 -4 -318 -2 l-317 3 -65 32 c-83 41 -152 110 -193 193
-29 59 -32 73 -32 160 0 86 3 101 32 162 65 138 198 226 343 227 31 1 221 -32
438 -76z m2854 40 c285 -133 304 -530 33 -689 -95 -55 -58 -54 -1255 -54
l-1106 0 -44 23 c-126 63 -132 245 -10 311 22 11 443 100 1095 232 1198 241
1161 236 1287 177z"/>
</g>
</svg>
