<?xml version="1.0" standalone="no"?>
<!DOCTYPE svg PUBLIC "-//W3C//DTD SVG 20010904//EN"
 "http://www.w3.org/TR/2001/REC-SVG-20010904/DTD/svg10.dtd">
<svg version="1.0" xmlns="http://www.w3.org/2000/svg"
 width="512.000000pt" height="512.000000pt" viewBox="0 0 512.000000 512.000000"
 preserveAspectRatio="xMidYMid meet">

<g transform="translate(0.000000,512.000000) scale(0.100000,-0.100000)"
fill="#000000" stroke="none">
<path d="M953 4945 c-332 -60 -620 -300 -733 -612 -63 -175 -61 -104 -58
-1814 l3 -1554 22 -76 c101 -356 345 -601 702 -702 l76 -22 1780 -3 c1258 -2
1795 1 1833 9 130 27 267 131 326 247 59 116 56 32 56 1662 0 1646 4 1549 -61
1671 -38 70 -126 157 -197 193 -115 58 -58 56 -1393 56 l-1226 0 -7 79 c-36
432 -365 791 -793 866 -102 18 -232 18 -330 0z m302 -320 c181 -38 349 -168
433 -335 75 -150 72 -94 70 -1339 l-3 -1110 -60 46 c-134 100 -333 174 -510
189 -213 17 -473 -61 -643 -193 l-57 -44 -3 1111 c-2 1244 -5 1188 69 1340
126 255 419 395 704 335z m3311 -971 c15 -11 37 -33 48 -48 21 -27 21 -31 24
-1504 2 -1017 0 -1488 -8 -1514 -13 -44 -68 -95 -112 -103 -18 -3 -628 -4
-1356 -3 l-1323 3 46 60 c59 75 137 235 167 340 l22 80 3 1358 4 1357 1229 -2
c1223 -3 1229 -3 1256 -24z m-3312 -1909 c241 -51 440 -250 491 -491 60 -283
-79 -573 -335 -702 -254 -127 -540 -82 -741 118 -252 251 -251 647 2 901 153
155 370 219 583 174z"/>
</g>
</svg>
