<?xml version="1.0" standalone="no"?>
<!DOCTYPE svg PUBLIC "-//W3C//DTD SVG 20010904//EN"
 "http://www.w3.org/TR/2001/REC-SVG-20010904/DTD/svg10.dtd">
<svg version="1.0" xmlns="http://www.w3.org/2000/svg"
 width="512.000000pt" height="512.000000pt" viewBox="0 0 512.000000 512.000000"
 preserveAspectRatio="xMidYMid meet">

<g transform="translate(0.000000,512.000000) scale(0.100000,-0.100000)"
fill="#000000" stroke="none">
<path d="M2380 5109 c-628 -66 -1177 -528 -1354 -1142 -45 -156 -59 -259 -60
-447 0 -143 4 -195 22 -287 76 -381 275 -714 567 -950 69 -55 189 -135 254
-168 l54 -27 -117 -61 c-170 -91 -285 -176 -426 -317 -221 -221 -367 -464
-449 -751 -52 -181 -63 -270 -68 -565 -5 -261 -4 -272 16 -312 14 -28 35 -49
61 -62 39 -20 55 -20 1677 -20 1539 0 1640 1 1673 18 19 9 45 33 58 52 l24 35
-5 300 c-4 253 -8 316 -26 399 -67 321 -214 614 -420 838 -170 185 -312 294
-516 396 l-96 48 53 28 c291 155 552 426 693 721 98 205 143 391 152 630 4
123 2 187 -11 275 -47 318 -174 597 -379 831 -346 396 -849 592 -1377 538z
m331 -300 c559 -72 996 -476 1116 -1029 25 -119 25 -391 0 -510 -109 -510
-501 -904 -1007 -1015 -117 -25 -335 -31 -458 -11 -533 85 -967 495 -1071
1013 -71 353 -4 694 195 994 60 91 205 243 293 308 277 203 609 292 932 250z
m-201 -2882 c0 -1 -317 -319 -706 -707 l-705 -705 6 65 c21 207 71 386 157
553 226 441 656 735 1152 787 39 4 77 8 84 9 6 0 12 0 12 -2z m702 -158 c136
-68 256 -156 373 -274 203 -202 324 -421 392 -705 20 -86 26 -140 30 -297 l6
-193 -507 0 -506 0 0 780 0 780 65 -25 c36 -13 102 -43 147 -66z m-512 -919
l0 -550 -275 0 c-151 0 -275 2 -275 5 0 7 544 1095 547 1095 2 0 3 -247 3
-550z m-645 -60 l-245 -490 -247 0 -248 0 490 490 c269 270 491 490 492 490 2
0 -107 -220 -242 -490z"/>
<path d="M1882 4000 c-96 -59 -95 -205 1 -258 48 -26 270 -25 310 2 72 49 93
137 49 208 -35 56 -71 68 -209 68 -100 0 -123 -3 -151 -20z"/>
<path d="M2922 4000 c-96 -59 -95 -205 1 -258 26 -13 57 -17 157 -17 116 0
127 2 159 24 43 31 75 100 66 144 -11 49 -42 93 -79 111 -25 12 -64 16 -153
16 -100 0 -123 -3 -151 -20z"/>
<path d="M2045 3206 c-41 -18 -83 -69 -91 -111 -10 -54 12 -99 77 -159 283
-262 720 -271 1030 -21 97 78 122 148 80 225 -42 79 -142 100 -219 46 -20 -15
-62 -45 -92 -66 -60 -43 -146 -75 -227 -84 -119 -14 -279 38 -377 123 -73 63
-118 75 -181 47z"/>
</g>
</svg>
