<?xml version="1.0" standalone="no"?>
<!DOCTYPE svg PUBLIC "-//W3C//DTD SVG 20010904//EN"
 "http://www.w3.org/TR/2001/REC-SVG-20010904/DTD/svg10.dtd">
<svg version="1.0" xmlns="http://www.w3.org/2000/svg"
 width="512.000000pt" height="512.000000pt" viewBox="0 0 512.000000 512.000000"
 preserveAspectRatio="xMidYMid meet">

<g transform="translate(0.000000,512.000000) scale(0.100000,-0.100000)"
fill="#000000" stroke="none">
<path d="M2423 4350 c-22 -5 -72 -21 -110 -36 -365 -145 -526 -572 -348 -924
32 -64 111 -166 152 -197 41 -32 38 -34 -72 -58 -115 -25 -431 -131 -485 -162
-72 -42 -142 -120 -183 -203 -20 -41 -121 -313 -223 -605 l-187 -530 -1 -110
c-1 -98 2 -115 24 -160 31 -64 94 -126 162 -162 93 -49 218 -37 417 42 61 23
63 24 45 4 -24 -27 -250 -177 -472 -314 -301 -185 -382 -289 -382 -486 0 -211
133 -357 385 -425 67 -18 127 -19 1350 -19 1193 0 1287 1 1383 18 197 35 311
86 395 177 64 69 87 130 87 225 0 152 -57 268 -182 369 -29 24 -154 106 -278
182 -205 126 -427 280 -417 290 2 2 32 -7 68 -21 128 -51 202 -69 284 -69 69
-1 87 3 133 27 68 36 131 98 162 162 22 45 25 62 24 160 l-1 110 -187 530
c-103 292 -202 562 -221 600 -68 142 -147 204 -341 269 -116 39 -273 86 -393
116 l-44 12 46 41 c216 197 276 516 147 782 -82 169 -209 279 -400 347 -62 23
-265 33 -337 18z m229 -201 c139 -29 260 -124 325 -257 38 -75 38 -77 38 -196
0 -119 -1 -122 -37 -199 -169 -354 -667 -354 -836 0 -36 77 -37 80 -37 199 0
119 0 121 38 196 96 196 303 300 509 257z m66 -1160 c186 -20 308 -48 581
-136 163 -52 209 -81 253 -159 37 -66 397 -1094 405 -1155 7 -56 -16 -110 -59
-141 -52 -36 -109 -23 -453 105 -311 115 -556 202 -715 254 -118 38 -222 38
-340 0 -159 -52 -404 -139 -715 -254 -344 -128 -401 -141 -453 -105 -44 32
-66 85 -58 143 8 60 366 1082 403 1150 50 93 85 112 346 193 313 97 570 131
805 105z m117 -1485 c121 -41 254 -87 295 -102 72 -27 75 -29 84 -67 17 -81
50 -139 122 -210 90 -90 175 -150 461 -327 128 -78 251 -160 273 -182 59 -55
83 -109 84 -183 1 -55 -2 -65 -29 -93 -76 -80 -210 -115 -500 -131 -123 -7
-466 -10 -895 -7 -692 4 -695 4 -737 26 -51 26 -80 62 -94 115 -22 84 5 138
92 182 108 55 212 79 734 165 418 69 439 74 465 108 38 47 22 117 -33 147
l-35 19 -324 -53 c-581 -94 -749 -131 -877 -192 -159 -77 -231 -176 -231 -320
0 -67 11 -124 35 -182 7 -16 -5 -17 -171 -17 -295 0 -410 20 -505 86 -61 42
-84 87 -83 164 0 39 7 77 16 95 28 54 109 118 273 219 493 304 617 409 646
547 6 30 14 57 18 61 10 11 480 175 565 197 39 11 85 17 101 14 17 -3 129 -38
250 -79z"/>
<path d="M2505 2809 c-93 -27 -151 -129 -215 -379 -23 -91 -46 -174 -50 -185
-6 -15 -72 -45 -261 -119 -140 -54 -264 -106 -277 -114 -81 -53 -50 -182 44
-182 39 0 588 208 635 241 34 24 38 36 98 270 50 197 68 249 82 249 13 0 37
-76 89 -280 27 -107 58 -206 68 -220 14 -19 90 -53 308 -139 159 -63 305 -116
324 -118 19 -3 47 0 61 5 31 12 63 74 55 107 -14 55 -46 73 -316 178 l-265
104 -11 39 c-7 21 -29 104 -49 184 -61 236 -119 334 -215 360 -41 12 -64 11
-105 -1z"/>
</g>
</svg>
