<?xml version="1.0" standalone="no"?>
<!DOCTYPE svg PUBLIC "-//W3C//DTD SVG 20010904//EN"
 "http://www.w3.org/TR/2001/REC-SVG-20010904/DTD/svg10.dtd">
<svg version="1.0" xmlns="http://www.w3.org/2000/svg"
 width="512.000000pt" height="512.000000pt" viewBox="0 0 512.000000 512.000000"
 preserveAspectRatio="xMidYMid meet">

<g transform="translate(0.000000,512.000000) scale(0.100000,-0.100000)"
fill="#000000" stroke="none">
<path d="M2395 5105 c-368 -68 -658 -336 -758 -699 -19 -69 -22 -106 -21 -246
0 -150 3 -173 28 -254 52 -173 167 -354 285 -452 l52 -43 -117 -56 c-465 -221
-795 -635 -904 -1133 -11 -48 -31 -197 -45 -332 -34 -333 -25 -300 -90 -334
-169 -88 -312 -244 -381 -414 -46 -116 -58 -180 -58 -317 0 -139 16 -222 68
-339 110 -248 353 -432 626 -476 89 -14 2871 -14 2960 0 323 51 580 283 672
605 29 104 32 305 5 404 -45 167 -103 267 -222 386 -65 65 -113 103 -172 135
-97 53 -83 14 -118 348 -14 134 -32 276 -41 315 -89 430 -345 805 -710 1043
-66 43 -246 138 -296 157 -8 3 13 30 54 71 129 125 215 267 264 433 32 108 43
293 24 409 -55 347 -304 640 -640 756 -133 46 -323 59 -465 33z m300 -300 c83
-17 212 -79 275 -132 108 -89 196 -228 225 -354 86 -380 -168 -746 -553 -799
-269 -37 -542 110 -663 355 -51 105 -69 180 -69 290 1 256 135 472 365 586
133 66 275 84 420 54z m86 -1611 c397 -68 743 -309 942 -659 101 -176 147
-337 177 -618 11 -105 23 -208 26 -228 l5 -36 -80 -7 c-44 -3 -136 -23 -203
-43 -68 -19 -133 -38 -145 -41 l-23 -4 0 386 0 386 -150 0 -150 0 -2 -437 -3
-437 -308 -98 -307 -97 -308 98 -307 97 -3 437 -2 437 -150 0 -150 0 0 -385
c0 -316 -2 -385 -13 -385 -8 0 -40 9 -73 20 -99 35 -209 60 -289 67 l-76 6 5
36 c3 20 15 123 26 228 37 344 109 548 270 762 201 267 514 457 845 515 111
20 330 20 446 0z m-1101 -1969 c201 -63 369 -117 374 -118 5 -2 -31 -22 -79
-45 -216 -104 -382 -272 -481 -488 -29 -62 -57 -151 -78 -247 l-6 -27 -124 0
c-68 0 -145 4 -172 9 -130 25 -249 99 -329 206 -170 227 -124 555 102 724 110
83 206 113 338 107 81 -4 127 -16 455 -121z m2405 96 c258 -91 403 -359 336
-621 -44 -173 -165 -307 -336 -372 l-60 -23 -1152 -3 c-1099 -2 -1153 -2
-1153 15 0 33 65 177 107 239 58 85 160 175 251 222 46 24 193 77 367 132 160
50 517 163 795 251 278 88 528 167 555 175 69 19 212 12 290 -15z"/>
</g>
</svg>
