<?xml version="1.0" standalone="no"?>
<!DOCTYPE svg PUBLIC "-//W3C//DTD SVG 20010904//EN"
 "http://www.w3.org/TR/2001/REC-SVG-20010904/DTD/svg10.dtd">
<svg version="1.0" xmlns="http://www.w3.org/2000/svg"
 width="512.000000pt" height="512.000000pt" viewBox="0 0 512.000000 512.000000"
 preserveAspectRatio="xMidYMid meet">

<g transform="translate(0.000000,512.000000) scale(0.100000,-0.100000)"
fill="#000000" stroke="none">
<path d="M2315 5109 c-800 -83 -1501 -518 -1927 -1196 -487 -774 -516 -1777
-75 -2578 117 -213 253 -395 430 -573 210 -213 421 -365 692 -498 260 -127
509 -203 810 -246 119 -17 512 -16 635 1 621 86 1149 361 1571 818 350 380
573 863 651 1408 17 118 17 512 0 630 -83 583 -321 1073 -715 1474 -404 411
-899 662 -1472 747 -123 18 -478 26 -600 13z m495 -320 c237 -61 447 -199 591
-388 64 -85 152 -264 179 -366 31 -115 39 -351 15 -466 -44 -221 -136 -393
-294 -549 -206 -205 -417 -292 -748 -310 -198 -11 -297 -28 -436 -76 -462
-160 -808 -566 -892 -1050 -20 -112 -20 -346 0 -458 28 -159 115 -387 187
-489 11 -16 18 -30 16 -32 -6 -6 -202 128 -283 193 -825 664 -1079 1813 -610
2760 177 357 419 637 746 864 298 207 686 350 1049 387 154 16 380 6 480 -20z
m1103 -420 c700 -524 1034 -1400 861 -2259 -107 -526 -408 -1010 -836 -1340
-381 -295 -889 -470 -1365 -470 -337 0 -653 155 -854 419 -65 86 -152 264
-181 371 -20 74 -23 109 -23 265 0 157 3 191 23 265 87 319 319 585 621 709
121 51 226 71 409 81 253 14 399 49 587 140 324 156 574 444 690 793 47 143
65 257 65 423 0 162 -16 271 -61 412 -31 94 -102 250 -140 304 -11 14 -19 29
-19 32 0 10 117 -66 223 -145z"/>
<path d="M2480 4310 c-445 -68 -627 -613 -310 -930 109 -109 238 -163 390
-163 304 0 550 245 550 548 0 243 -167 464 -400 528 -74 21 -163 27 -230 17z
m191 -320 c234 -120 151 -474 -111 -474 -258 0 -346 351 -117 471 72 37 158
38 228 3z"/>
<path d="M2480 1900 c-445 -68 -627 -613 -310 -930 109 -109 238 -163 390
-163 304 0 550 245 550 548 0 243 -167 464 -400 528 -74 21 -163 27 -230 17z
m191 -320 c234 -120 151 -474 -111 -474 -258 0 -346 351 -117 471 72 37 158
38 228 3z"/>
</g>
</svg>
